<?xml version="1.0" encoding="utf-8"?>
<!-- Generator: Adobe Illustrator 24.0.1, SVG Export Plug-In . SVG Version: 6.00 Build 0)  -->
<svg version="1.1" id="Layer_1" xmlns="http://www.w3.org/2000/svg" xmlns:xlink="http://www.w3.org/1999/xlink" x="0px" y="0px"
	 viewBox="0 0 77.6 23.3" style="enable-background:new 0 0 77.6 23.3;" xml:space="preserve">
<style type="text/css">
	.st0{fill:#186B6D;}
</style>
<rect x="19.1" y="5.7" class="st0" width="4.2" height="13.6"/>
<path class="st0" d="M46.2,18c-1.2,0-1.8-0.7-1.8-2V6.9h3.3V5.7h-3.3V2.3h-4l-0.2,3.4h-1.8v1.1h1.8v9c0,2.3,1.3,3.8,4,3.8
	c2,0,3.2-0.8,3.7-1.9l-0.2-0.2C47.3,17.8,46.8,18,46.2,18z"/>
<path class="st0" d="M55,5.4c-4.5,0-7.3,3.1-7.3,7.2c0,4,2.7,7.1,7.2,7.1c4.7,0,7.3-3.1,7.3-7.2C62.2,8.4,59.5,5.4,55,5.4z M55,18.7
	c-2.3,0-2.6-1.8-2.6-6.2c0-4.3,0.3-6.1,2.5-6.1c2.3,0,2.6,1.9,2.6,6.2C57.5,16.8,57.2,18.7,55,18.7z"/>
<path class="st0" d="M68.1,8.1L68,5.7H64v13.7h4.2V8.4l0,0c0.3-0.1,0.5-0.1,0.8-0.1c0.7,0,1.6,0.3,4.2,1.5l0.2-0.1V5.9
	c-0.5-0.3-1.1-0.5-1.7-0.5C70.6,5.4,69.2,6.1,68.1,8.1z"/>
<path class="st0" d="M33,17.7l0.5,1.6H37V8.9c0-2.3-1.8-3.5-4.8-3.5c-2,0-4.5,0.6-6.2,1.1l-0.2,2.4L26.1,9c3.2-2.2,4.2-2.7,5.2-2.7
	c1.1,0,1.6,0.6,1.6,1.8V11c-4.8,1-7.7,1.7-7.7,4.9c0,2.2,1.5,3.7,3.9,3.7C30.9,19.7,32.3,18.8,33,17.7z M29.3,15.2
	c0-2.1,0.7-2.6,3.5-3.2v5.3c-0.5,0.4-1.1,0.6-1.8,0.6C29.9,17.8,29.3,17.1,29.3,15.2z"/>
<circle class="st0" cx="14.7" cy="8" r="2.6"/>
<polygon class="st0" points="11.9,19.4 13.3,16.4 8.5,5.7 4,5.7 10.1,19.4 "/>
</svg>
